<?xml version="1.0" standalone="no"?><!DOCTYPE svg PUBLIC "-//W3C//DTD SVG 1.1//EN" "http://www.w3.org/Graphics/SVG/1.1/DTD/svg11.dtd"><svg t="1612236604234" class="icon" viewBox="0 0 1024 1024" version="1.1" xmlns="http://www.w3.org/2000/svg" p-id="3873" xmlns:xlink="http://www.w3.org/1999/xlink" width="200" height="200"><defs><style type="text/css"></style></defs><path d="M615.168 734.976H441.5488c-33.9456 0-61.44-27.4944-61.44-61.44V435.0464c0-33.9456 27.4944-61.44 61.44-61.44h173.6192c33.9456 0 61.44 27.4944 61.44 61.44v238.4896c0 33.9456-27.4944 61.44-61.44 61.44z" fill="#FBF598" p-id="3874"></path><path d="M615.168 734.976h-115.712c-33.9456 0-61.44-27.4944-61.44-61.44v-167.936c0-33.9456 27.4944-61.44 61.44-61.44h115.7632c33.9456 0 61.44 27.4944 61.44 61.44v167.936c-0.0512 33.9456-27.5456 61.44-61.4912 61.44z" fill="#EAF5C5" p-id="3875"></path><path d="M615.168 734.976h-43.7248c-33.9456 0-61.44-27.4944-61.44-61.44v-80.1792c0-33.9456 27.4944-61.44 61.44-61.44h43.7248c33.9456 0 61.44 27.4944 61.44 61.44v80.1792c0 33.9456-27.4944 61.44-61.44 61.44z" fill="#D5F5FB" p-id="3876"></path><path d="M807.9872 468.8384c-14.1312 0-25.6-11.4688-25.6-25.6v-47.36c0-14.1312 11.4688-25.6 25.6-25.6s25.6 11.4688 25.6 25.6v47.36c0 14.1312-11.4176 25.6-25.6 25.6z" fill="#474747" p-id="3877"></path><path d="M807.9872 331.52c14.1312 0 25.6-11.4688 25.6-25.6v-41.8304c0-46.1824-37.5808-83.7632-83.7632-83.7632h-104.0384V141.312c0-14.1312-11.4688-25.6-25.6-25.6s-25.6 11.4688-25.6 25.6v39.0656H427.1104V141.312c0-14.1312-11.4688-25.6-25.6-25.6s-25.6 11.4688-25.6 25.6v39.0656H276.0192c-46.1824 0-83.7632 37.5808-83.7632 83.7632V810.496c0 46.1824 37.5808 83.7632 83.7632 83.7632h473.8048c46.1824 0 83.7632-37.5808 83.7632-83.7632v-279.5008c0-14.1312-11.4688-25.6-25.6-25.6s-25.6 11.4688-25.6 25.6v279.5008c0 17.9712-14.592 32.5632-32.5632 32.5632H276.0192c-17.9712 0-32.5632-14.592-32.5632-32.5632V264.1408c0-17.9712 14.592-32.5632 32.5632-32.5632h99.8912v15.6672c0 14.1312 11.4688 25.6 25.6 25.6s25.6-11.4688 25.6-25.6v-15.6672h167.5264v15.6672c0 14.1312 11.4688 25.6 25.6 25.6s25.6-11.4688 25.6-25.6v-15.6672h104.0384c17.9712 0 32.5632 14.592 32.5632 32.5632v41.8304c-0.0512 14.1312 11.4176 25.5488 25.5488 25.5488z" fill="#474747" p-id="3878"></path><path d="M687.9744 446.6688H332.0832c-14.1312 0-25.6-11.4688-25.6-25.6s11.4688-25.6 25.6-25.6h355.9424c14.1312 0 25.6 11.4688 25.6 25.6s-11.52 25.6-25.6512 25.6zM601.856 568.4224H332.0832c-14.1312 0-25.6-11.4688-25.6-25.6s11.4688-25.6 25.6-25.6h269.7728c14.1312 0 25.6 11.4688 25.6 25.6s-11.4688 25.6-25.6 25.6zM514.304 685.1584h-182.272c-14.1312 0-25.6-11.4688-25.6-25.6s11.4688-25.6 25.6-25.6h182.272c14.1312 0 25.6 11.4688 25.6 25.6s-11.4176 25.6-25.6 25.6z" fill="#474747" p-id="3879"></path></svg>