<?xml version="1.0" standalone="no"?><!DOCTYPE svg PUBLIC "-//W3C//DTD SVG 1.1//EN" "http://www.w3.org/Graphics/SVG/1.1/DTD/svg11.dtd"><svg t="1612236613163" class="icon" viewBox="0 0 1024 1024" version="1.1" xmlns="http://www.w3.org/2000/svg" p-id="4179" xmlns:xlink="http://www.w3.org/1999/xlink" width="200" height="200"><defs><style type="text/css"></style></defs><path d="M403.58171 378.571561a36.559531 36.559531 0 0 1 31.574277 54.966701 36.559531 36.559531 0 0 1-31.574277 18.344217H227.367109a36.559531 36.559531 0 0 1-31.574277-54.9677 37.390906 37.390906 0 0 1 32.085892-18.343218h175.766938z m-212.327468-115.623127c0-19.814113 16.298754-35.665203 36.112867-36.176818h263.841763c19.815112 0 36.112867 16.298754 36.112867 36.176818v1.022232c0 19.814113-16.297755 36.175819-36.112867 36.17582h-263.841763a36.623483 36.623483 0 0 1-36.112867-36.17582v-1.022232zM143.319258 0.703471H773.076092a98.430045 98.430045 0 0 1 99.772036 95.745063h0.510616v31.574276c0 13.23006-7.094669 24.927271-18.279265 31.574277a35.409395 35.409395 0 0 1-36.17582 0 36.559531 36.559531 0 0 1-18.344217-31.574277V98.430045a26.84483 26.84483 0 0 0-27.48335-24.927271H142.869596a26.84483 26.84483 0 0 0-27.483351 24.927271v827.768058a26.84483 26.84483 0 0 0 27.483351 24.927271h630.206496a26.84483 26.84483 0 0 0 27.48335-24.926272v-31.574276a36.495579 36.495579 0 0 1 17.832602-33.109124 35.857059 35.857059 0 0 1 37.709666 0 37.071147 37.071147 0 0 1 17.76865 33.109124v31.574276a99.068565 99.068565 0 0 1-100.347604 97.790526h-630.206496A99.708085 99.708085 0 0 1 43.034607 926.199102V98.493997A99.708085 99.708085 0 0 1 143.382211 0.639519z m267.933689 643.436556l59.569242 60.591475 61.103091 61.613706 325.393516-323.411006-120.672333-122.142228-325.393516 323.347054z m171.612059 174.169138a36.432626 36.432626 0 0 1-0.510616 50.429111 36.623483 36.623483 0 0 1-50.941725 1.023231l-222.552786-225.110864a36.623483 36.623483 0 0 1 0-50.939726 36.112867 36.112867 0 0 1 50.940726-1.023232L685.76869 268.828017a36.432626 36.432626 0 0 1 51.38739-51.451342L849.199896 330.441723 960.732097 442.487538a36.112867 36.112867 0 1 1-51.451342 50.940726L771.797053 629.886736l238.852538 244.412361a37.071147 37.071147 0 0 1 11.185596 36.176819 35.793107 35.793107 0 0 1-26.972734 26.460119 37.071147 37.071147 0 0 1-36.175819-11.184596L719.323478 682.872925 582.864007 818.309165z" p-id="4180"></path></svg>